<svg width="1280" height="720" viewBox="0 0 1280 720" fill="none" xmlns="http://www.w3.org/2000/svg">
<rect width="1280" height="720" fill="#E5E5E5"/>
<rect width="1280" height="720" fill="#093545"/>
<path fill-rule="evenodd" clip-rule="evenodd" d="M0 609L53 613.171C107 617.341 213 625.682 320 639.798C427 654.234 533 674.766 640 678.936C747 683.107 853 670.595 960 666.746C1067 662.575 1173 666.746 1227 668.671L1280 670.595V720H1227C1173 720 1067 720 960 720C853 720 747 720 640 720C533 720 427 720 320 720C213 720 107 720 53 720H0V609Z" fill="#20DF7F" fill-opacity="0.09"/>
<path fill-rule="evenodd" clip-rule="evenodd" d="M0 653.4L42.6667 662.28C85.3333 671.16 170.667 688.92 256 684.48C341.333 680.04 426.667 653.4 512 635.64C597.333 617.88 682.667 609 768 609C853.333 609 938.667 617.88 1024 633.42C1109.33 648.96 1194.67 671.16 1237.33 682.26L1280 693.36V720H1237.33C1194.67 720 1109.33 720 1024 720C938.667 720 853.333 720 768 720C682.667 720 597.333 720 512 720C426.667 720 341.333 720 256 720C170.667 720 85.3333 720 42.6667 720H0V653.4Z" fill="#E5E5E5" fill-opacity="0.13"/>
</svg>
